<mxfile host="Electron" modified="2024-08-12T11:04:34.431Z" agent="Mozilla/5.0 (Windows NT 10.0; Win64; x64) AppleWebKit/537.36 (KHTML, like Gecko) draw.io/24.5.3 Chrome/124.0.6367.207 Electron/30.0.6 Safari/537.36" etag="GFcXctcUuR1U4VHYqoJL" version="24.5.3" type="device">
  <diagram id="gvh3Hm5pyqRmRrKiED2f" name="Страница — 2">
    <mxGraphModel dx="478" dy="684" grid="0" gridSize="10" guides="1" tooltips="1" connect="1" arrows="1" fold="1" page="1" pageScale="1" pageWidth="827" pageHeight="1169" math="0" shadow="0">
      <root>
        <mxCell id="0" />
        <mxCell id="1" parent="0" />
        <mxCell id="bBu1zgxIarCQx-9ZuRau-4" style="edgeStyle=none;rounded=0;orthogonalLoop=1;jettySize=auto;html=1;entryX=1;entryY=0.5;entryDx=0;entryDy=0;strokeColor=default;align=center;verticalAlign=middle;fontFamily=Helvetica;fontSize=14;fontColor=default;labelBackgroundColor=default;endArrow=none;endFill=0;exitX=0;exitY=0.3333333333333333;exitDx=0;exitDy=0;exitPerimeter=0;" parent="1" source="KgC3VI3_XV5hWjITczKB-27" target="bBu1zgxIarCQx-9ZuRau-2" edge="1">
          <mxGeometry relative="1" as="geometry">
            <mxPoint x="518" y="560" as="sourcePoint" />
          </mxGeometry>
        </mxCell>
        <mxCell id="bBu1zgxIarCQx-9ZuRau-5" style="edgeStyle=none;rounded=0;orthogonalLoop=1;jettySize=auto;html=1;exitX=1;exitY=0.3333333333333333;exitDx=0;exitDy=0;exitPerimeter=0;entryX=0;entryY=0.5;entryDx=0;entryDy=0;strokeColor=default;align=center;verticalAlign=middle;fontFamily=Helvetica;fontSize=14;fontColor=default;labelBackgroundColor=default;endArrow=none;endFill=0;" parent="1" source="KgC3VI3_XV5hWjITczKB-27" target="bBu1zgxIarCQx-9ZuRau-1" edge="1">
          <mxGeometry relative="1" as="geometry" />
        </mxCell>
        <mxCell id="HsQEB7sMwdgDtGSgqcQV-1" style="rounded=0;orthogonalLoop=1;jettySize=auto;html=1;exitX=0;exitY=0.3333333333333333;exitDx=0;exitDy=0;exitPerimeter=0;entryX=1;entryY=0.5;entryDx=0;entryDy=0;endArrow=none;endFill=0;" parent="1" source="KgC3VI3_XV5hWjITczKB-27" target="KgC3VI3_XV5hWjITczKB-37" edge="1">
          <mxGeometry relative="1" as="geometry" />
        </mxCell>
        <mxCell id="KgC3VI3_XV5hWjITczKB-27" value="Администратор" style="shape=umlActor;verticalLabelPosition=bottom;verticalAlign=top;html=1;outlineConnect=0;fontSize=14;container=0;" parent="1" vertex="1">
          <mxGeometry x="527" y="566" width="40" height="80" as="geometry" />
        </mxCell>
        <mxCell id="KgC3VI3_XV5hWjITczKB-35" value="" style="edgeStyle=none;shape=connector;rounded=0;orthogonalLoop=1;jettySize=auto;html=1;exitX=1;exitY=0.3333333333333333;exitDx=0;exitDy=0;exitPerimeter=0;entryX=0;entryY=0.5;entryDx=0;entryDy=0;labelBackgroundColor=default;strokeColor=default;align=center;verticalAlign=middle;fontFamily=Helvetica;fontSize=14;fontColor=default;endArrow=none;endFill=0;" parent="1" source="KgC3VI3_XV5hWjITczKB-27" target="KgC3VI3_XV5hWjITczKB-36" edge="1">
          <mxGeometry relative="1" as="geometry">
            <mxPoint x="328" y="732" as="targetPoint" />
            <mxPoint x="577" y="563" as="sourcePoint" />
          </mxGeometry>
        </mxCell>
        <mxCell id="KgC3VI3_XV5hWjITczKB-36" value="Добавить ракетку" style="ellipse;whiteSpace=wrap;html=1;flipV=0;flipH=0;fontSize=14;container=0;" parent="1" vertex="1">
          <mxGeometry x="650" y="634" width="146" height="50" as="geometry" />
        </mxCell>
        <mxCell id="KgC3VI3_XV5hWjITczKB-37" value="Добавить/удалить&lt;br style=&quot;border-color: var(--border-color);&quot;&gt;поставщика" style="ellipse;whiteSpace=wrap;html=1;flipV=0;flipH=0;fontSize=14;container=0;" parent="1" vertex="1">
          <mxGeometry x="315" y="599.5" width="146" height="50" as="geometry" />
        </mxCell>
        <mxCell id="KgC3VI3_XV5hWjITczKB-3" value="Гость" style="shape=umlActor;verticalLabelPosition=bottom;verticalAlign=top;html=1;outlineConnect=0;flipV=0;flipH=0;fontSize=14;container=0;" parent="1" vertex="1">
          <mxGeometry x="220" y="180" width="40" height="80" as="geometry" />
        </mxCell>
        <mxCell id="KgC3VI3_XV5hWjITczKB-4" value="Авторизованный&lt;br style=&quot;font-size: 14px;&quot;&gt;клиент" style="shape=umlActor;verticalLabelPosition=bottom;verticalAlign=top;html=1;outlineConnect=0;flipV=0;flipH=0;fontSize=14;container=0;" parent="1" vertex="1">
          <mxGeometry x="500" y="180" width="40" height="80" as="geometry" />
        </mxCell>
        <mxCell id="KgC3VI3_XV5hWjITczKB-5" style="edgeStyle=none;shape=connector;rounded=0;orthogonalLoop=1;jettySize=auto;html=1;exitX=1;exitY=0.3333333333333333;exitDx=0;exitDy=0;exitPerimeter=0;entryX=0;entryY=0.5;entryDx=0;entryDy=0;labelBackgroundColor=default;strokeColor=default;align=center;verticalAlign=middle;fontFamily=Helvetica;fontSize=14;fontColor=default;endArrow=none;endFill=0;" parent="1" source="KgC3VI3_XV5hWjITczKB-4" target="KgC3VI3_XV5hWjITczKB-14" edge="1">
          <mxGeometry relative="1" as="geometry" />
        </mxCell>
        <mxCell id="KgC3VI3_XV5hWjITczKB-6" style="edgeStyle=none;shape=connector;rounded=0;orthogonalLoop=1;jettySize=auto;html=1;exitX=1;exitY=0.3333333333333333;exitDx=0;exitDy=0;exitPerimeter=0;entryX=0;entryY=0.5;entryDx=0;entryDy=0;labelBackgroundColor=default;strokeColor=default;align=center;verticalAlign=middle;fontFamily=Helvetica;fontSize=14;fontColor=default;endArrow=none;endFill=0;" parent="1" source="KgC3VI3_XV5hWjITczKB-4" target="KgC3VI3_XV5hWjITczKB-19" edge="1">
          <mxGeometry relative="1" as="geometry">
            <mxPoint x="689.9999999999989" y="466.5" as="targetPoint" />
          </mxGeometry>
        </mxCell>
        <mxCell id="KgC3VI3_XV5hWjITczKB-7" style="edgeStyle=none;shape=connector;rounded=0;orthogonalLoop=1;jettySize=auto;html=1;exitX=1;exitY=0.3333333333333333;exitDx=0;exitDy=0;exitPerimeter=0;entryX=0;entryY=0.5;entryDx=0;entryDy=0;labelBackgroundColor=default;strokeColor=default;align=center;verticalAlign=middle;fontFamily=Helvetica;fontSize=14;fontColor=default;endArrow=none;endFill=0;" parent="1" source="KgC3VI3_XV5hWjITczKB-4" target="KgC3VI3_XV5hWjITczKB-15" edge="1">
          <mxGeometry relative="1" as="geometry" />
        </mxCell>
        <mxCell id="KgC3VI3_XV5hWjITczKB-8" style="edgeStyle=none;shape=connector;rounded=0;orthogonalLoop=1;jettySize=auto;html=1;exitX=1;exitY=0.3333333333333333;exitDx=0;exitDy=0;exitPerimeter=0;entryX=0;entryY=0.5;entryDx=0;entryDy=0;labelBackgroundColor=default;strokeColor=default;align=center;verticalAlign=middle;fontFamily=Helvetica;fontSize=14;fontColor=default;endArrow=none;endFill=0;" parent="1" source="KgC3VI3_XV5hWjITczKB-4" target="KgC3VI3_XV5hWjITczKB-16" edge="1">
          <mxGeometry relative="1" as="geometry" />
        </mxCell>
        <mxCell id="KgC3VI3_XV5hWjITczKB-9" style="edgeStyle=none;shape=connector;rounded=0;orthogonalLoop=1;jettySize=auto;html=1;exitX=1;exitY=0.3333333333333333;exitDx=0;exitDy=0;exitPerimeter=0;entryX=0;entryY=0.5;entryDx=0;entryDy=0;labelBackgroundColor=default;strokeColor=default;align=center;verticalAlign=middle;fontFamily=Helvetica;fontSize=14;fontColor=default;endArrow=none;endFill=0;" parent="1" source="KgC3VI3_XV5hWjITczKB-4" target="KgC3VI3_XV5hWjITczKB-18" edge="1">
          <mxGeometry relative="1" as="geometry">
            <mxPoint x="720.0000000000015" y="367.5" as="targetPoint" />
          </mxGeometry>
        </mxCell>
        <mxCell id="KgC3VI3_XV5hWjITczKB-10" value="Зарегестрироваться" style="ellipse;whiteSpace=wrap;html=1;flipV=0;flipH=0;fontSize=14;container=0;" parent="1" vertex="1">
          <mxGeometry x="30" y="180" width="140" height="50" as="geometry" />
        </mxCell>
        <mxCell id="KgC3VI3_XV5hWjITczKB-11" style="rounded=0;orthogonalLoop=1;jettySize=auto;html=1;exitX=0;exitY=0.5;exitDx=0;exitDy=0;endArrow=none;endFill=0;entryX=1;entryY=0.3333333333333333;entryDx=0;entryDy=0;entryPerimeter=0;" parent="1" source="KgC3VI3_XV5hWjITczKB-17" target="KgC3VI3_XV5hWjITczKB-4" edge="1">
          <mxGeometry relative="1" as="geometry">
            <mxPoint x="560" y="210" as="targetPoint" />
          </mxGeometry>
        </mxCell>
        <mxCell id="KgC3VI3_XV5hWjITczKB-12" style="edgeStyle=none;shape=connector;rounded=0;orthogonalLoop=1;jettySize=auto;html=1;exitX=1;exitY=0.5;exitDx=0;exitDy=0;entryX=0;entryY=0.3333333333333333;entryDx=0;entryDy=0;entryPerimeter=0;labelBackgroundColor=default;strokeColor=default;align=center;verticalAlign=middle;fontFamily=Helvetica;fontSize=11;fontColor=default;endArrow=none;endFill=0;" parent="1" source="KgC3VI3_XV5hWjITczKB-10" target="KgC3VI3_XV5hWjITczKB-3" edge="1">
          <mxGeometry relative="1" as="geometry" />
        </mxCell>
        <mxCell id="KgC3VI3_XV5hWjITczKB-13" value="" style="group" parent="1" vertex="1" connectable="0">
          <mxGeometry x="650" y="40" width="146.5" height="400" as="geometry" />
        </mxCell>
        <mxCell id="KgC3VI3_XV5hWjITczKB-14" value="Войти" style="ellipse;whiteSpace=wrap;html=1;flipV=0;flipH=0;fontSize=14;container=0;" parent="KgC3VI3_XV5hWjITczKB-13" vertex="1">
          <mxGeometry x="6.5" width="140" height="50" as="geometry" />
        </mxCell>
        <mxCell id="KgC3VI3_XV5hWjITczKB-15" value="Просмотреть корзину" style="ellipse;whiteSpace=wrap;html=1;flipV=0;flipH=0;fontSize=14;container=0;" parent="KgC3VI3_XV5hWjITczKB-13" vertex="1">
          <mxGeometry x="0.5" y="70" width="146" height="50" as="geometry" />
        </mxCell>
        <mxCell id="KgC3VI3_XV5hWjITczKB-16" value="Просмотреть &lt;br&gt;историю заказов" style="ellipse;whiteSpace=wrap;html=1;flipV=0;flipH=0;fontSize=14;container=0;" parent="KgC3VI3_XV5hWjITczKB-13" vertex="1">
          <mxGeometry x="0.5" y="140" width="146" height="50" as="geometry" />
        </mxCell>
        <mxCell id="KgC3VI3_XV5hWjITczKB-17" value="Оформить заказ" style="ellipse;whiteSpace=wrap;html=1;flipV=0;flipH=0;fontSize=14;container=0;" parent="KgC3VI3_XV5hWjITczKB-13" vertex="1">
          <mxGeometry y="210" width="146" height="50" as="geometry" />
        </mxCell>
        <mxCell id="KgC3VI3_XV5hWjITczKB-18" value="Добавить/удалить отзыв" style="ellipse;whiteSpace=wrap;html=1;flipV=0;flipH=0;fontSize=14;container=0;" parent="KgC3VI3_XV5hWjITczKB-13" vertex="1">
          <mxGeometry y="280" width="146" height="50" as="geometry" />
        </mxCell>
        <mxCell id="KgC3VI3_XV5hWjITczKB-19" value="Выйти" style="ellipse;whiteSpace=wrap;html=1;flipV=0;flipH=0;fontSize=14;container=0;" parent="KgC3VI3_XV5hWjITczKB-13" vertex="1">
          <mxGeometry y="350" width="146" height="50" as="geometry" />
        </mxCell>
        <mxCell id="KgC3VI3_XV5hWjITczKB-20" value="Просмотреть&lt;br style=&quot;border-color: var(--border-color);&quot;&gt;каталог" style="ellipse;whiteSpace=wrap;html=1;fontSize=14;container=0;" parent="1" vertex="1">
          <mxGeometry x="300" y="180" width="146" height="50" as="geometry" />
        </mxCell>
        <mxCell id="KgC3VI3_XV5hWjITczKB-21" style="edgeStyle=none;shape=connector;rounded=0;orthogonalLoop=1;jettySize=auto;html=1;exitX=1;exitY=0.3333333333333333;exitDx=0;exitDy=0;exitPerimeter=0;entryX=0;entryY=0.5;entryDx=0;entryDy=0;labelBackgroundColor=default;strokeColor=default;align=center;verticalAlign=middle;fontFamily=Helvetica;fontSize=11;fontColor=default;endArrow=none;endFill=0;" parent="1" source="KgC3VI3_XV5hWjITczKB-3" target="KgC3VI3_XV5hWjITczKB-20" edge="1">
          <mxGeometry relative="1" as="geometry" />
        </mxCell>
        <mxCell id="KgC3VI3_XV5hWjITczKB-22" style="edgeStyle=none;shape=connector;rounded=0;orthogonalLoop=1;jettySize=auto;html=1;exitX=0;exitY=0.3333333333333333;exitDx=0;exitDy=0;exitPerimeter=0;entryX=1;entryY=0.5;entryDx=0;entryDy=0;labelBackgroundColor=default;strokeColor=default;align=center;verticalAlign=middle;fontFamily=Helvetica;fontSize=11;fontColor=default;endArrow=none;endFill=0;" parent="1" source="KgC3VI3_XV5hWjITczKB-4" target="KgC3VI3_XV5hWjITczKB-20" edge="1">
          <mxGeometry relative="1" as="geometry" />
        </mxCell>
        <mxCell id="2FOBA9yftlI5AmWJWFGz-4" value="Редактировать&lt;br style=&quot;font-size: 14px;&quot;&gt;ракетку" style="ellipse;whiteSpace=wrap;html=1;fontSize=14;container=0;" parent="1" vertex="1">
          <mxGeometry x="650" y="566" width="146" height="50" as="geometry" />
        </mxCell>
        <mxCell id="2FOBA9yftlI5AmWJWFGz-6" style="edgeStyle=none;rounded=0;orthogonalLoop=1;jettySize=auto;html=1;strokeColor=default;align=center;verticalAlign=middle;fontFamily=Helvetica;fontSize=11;fontColor=default;labelBackgroundColor=default;endArrow=none;endFill=0;exitX=0;exitY=0.5;exitDx=0;exitDy=0;entryX=1;entryY=0.3333333333333333;entryDx=0;entryDy=0;entryPerimeter=0;" parent="1" source="2FOBA9yftlI5AmWJWFGz-4" target="KgC3VI3_XV5hWjITczKB-27" edge="1">
          <mxGeometry relative="1" as="geometry">
            <mxPoint x="625" y="581" as="sourcePoint" />
            <mxPoint x="570" y="572" as="targetPoint" />
          </mxGeometry>
        </mxCell>
        <mxCell id="bBu1zgxIarCQx-9ZuRau-1" value="Просмотреть все ракетки" style="ellipse;whiteSpace=wrap;html=1;flipV=0;flipH=0;fontSize=14;container=0;" parent="1" vertex="1">
          <mxGeometry x="650.5" y="499" width="146" height="50" as="geometry" />
        </mxCell>
        <mxCell id="bBu1zgxIarCQx-9ZuRau-2" value="Просмотреть всех поставщиков" style="ellipse;whiteSpace=wrap;html=1;flipV=0;flipH=0;fontSize=14;container=0;" parent="1" vertex="1">
          <mxGeometry x="315" y="532.5" width="146" height="50" as="geometry" />
        </mxCell>
      </root>
    </mxGraphModel>
  </diagram>
</mxfile>
